<svg version="1.1" viewBox="0.0 0.0 720.0 540.0" fill="none" stroke="none" stroke-linecap="square" stroke-miterlimit="10" xmlns:xlink="http://www.w3.org/1999/xlink" xmlns="http://www.w3.org/2000/svg"><clipPath id="p.0"><path d="m0 0l720.0 0l0 540.0l-720.0 0l0 -540.0z" clip-rule="nonzero"/></clipPath><g clip-path="url(#p.0)"><path fill="#000000" fill-opacity="0.0" d="m0 0l720.0 0l0 540.0l-720.0 0z" fill-rule="evenodd"/><path fill="#000000" fill-opacity="0.0" d="m11.010499 0l626.04724 0l0 584.9764l-626.04724 0z" fill-rule="evenodd"/><path fill="#ffffff" d="m75.54175 236.73436q-26.359375 0 -38.734375 -13.296875q-12.359375 -13.296875 -12.359375 -44.109375q0 -24.5 8.28125 -52.71875q8.28125 -28.234375 26.59375 -48.421875q18.3125 -20.1875 46.546875 -20.1875q17.5 0 28.234375 7.703125q10.734375 7.703125 10.734375 23.5625q0 10.03125 -3.96875 15.75q-3.96875 5.71875 -12.359375 5.71875q-8.40625 0 -13.296875 -6.0625q4.1875 -2.109375 7.453125 -8.40625q3.28125 -6.296875 3.28125 -13.0625q0 -6.296875 -3.390625 -10.265625q-3.375 -3.96875 -10.84375 -3.96875q-12.375 0 -23.578125 16.921875q-11.1875 16.90625 -18.078125 42.578125q-6.875 25.671875 -6.875 49.46875q0 17.734375 6.0625 27.0625q6.0625 9.328125 21.9375 9.328125q13.765625 0 25.421875 -6.0625q11.671875 -6.0625 20.0625 -17.265625l5.375 2.328125q-5.828125 14.703125 -17.265625 24.515625q-11.4375 9.796875 -24.5 14.34375q-13.0625 4.546875 -24.734375 4.546875zm83.526566 -2.328125q-11.1875 0 -18.078125 -7.0q-6.875 -7.0 -6.875 -21.0q0 -5.84375 1.859375 -15.171875l24.96875 -116.890625l34.53125 -4.671875l-26.828125 126.0q-0.9375 3.5 -0.9375 7.46875q0 4.65625 2.21875 6.640625q2.21875 1.984375 7.34375 1.984375q6.765625 0 12.59375 -5.71875q5.84375 -5.71875 8.40625 -14.8125l9.796875 0q-8.625 25.203125 -22.15625 34.1875q-13.53125 8.984375 -26.84375 8.984375zm62.2986 0q-11.1875 0 -18.078125 -7.0q-6.875 -7.0 -6.875 -21.0q0 -5.84375 1.859375 -15.171875l15.859375 -74.890625l33.609375 0l-16.796875 79.328125q-0.703125 3.5 -0.703125 6.53125q0 9.5625 7.0 9.5625q6.53125 0 11.1875 -5.484375q4.671875 -5.484375 7.46875 -15.046875l15.875 -74.890625l33.59375 0l-16.796875 79.328125q-0.9375 3.5 -0.9375 7.46875q0 4.65625 2.21875 6.640625q2.21875 1.984375 7.359375 1.984375q6.53125 0 11.3125 -5.59375q4.78125 -5.609375 7.578125 -14.9375l9.796875 0q-8.625 25.203125 -21.34375 34.1875q-12.71875 8.984375 -25.546875 8.984375q-10.03125 0 -15.984375 -5.59375q-5.953125 -5.609375 -7.125 -16.578125q-7.921875 12.828125 -16.671875 17.5q-8.75 4.671875 -17.859375 4.671875zm125.76819 0q-15.859375 0 -24.265625 -7.8125q-8.40625 -7.828125 -8.40625 -22.0625q0 -7.0 1.640625 -13.296875l24.96875 -116.890625l34.53125 -4.671875l-11.203125 52.5q6.53125 -3.96875 10.734375 -5.25q4.203125 -1.28125 8.40625 -1.28125q27.53125 0 27.53125 39.890625q0 16.109375 -6.1875 34.421875q-6.1875 18.3125 -20.53125 31.390625q-14.34375 13.0625 -37.21875 13.0625zm13.0625 -22.640625q7.234375 0 13.53125 -8.984375q6.3125 -8.984375 10.03125 -22.390625q3.734375 -13.421875 3.734375 -25.78125q0 -9.34375 -3.265625 -15.875q-3.265625 -6.53125 -9.09375 -6.53125q-3.5 0 -7.8125 1.046875q-4.3125 1.046875 -5.953125 3.15625l-12.828125 59.265625q-0.703125 2.796875 -0.703125 5.359375q0 10.734375 12.359375 10.734375z" fill-rule="nonzero"/><path fill="#ffffff" d="m150.448 571.32806q-10.5 0 -20.65625 -5.953125q-10.15625 -5.9375 -25.78125 -18.3125q-11.671875 -9.328125 -19.953125 -15.046875q-8.28125 -5.71875 -17.96875 -9.6875q-9.671875 -3.96875 -19.71875 -3.96875q-3.5 0 -5.359375 0.234375l34.765625 -161.6875q-15.640625 6.296875 -24.15625 19.25q-8.515625 12.953125 -8.515625 31.609375q0 8.640625 1.625 12.03125q1.640625 3.375 1.640625 3.84375q-12.59375 0 -18.78125 -5.25q-6.171875 -5.25 -6.171875 -17.390625q0 -14.9375 12.25 -29.046875q12.25 -14.109375 31.375 -22.859375q19.140625 -8.75 38.265625 -8.75q3.265625 0 9.328125 0.453125l-35.921875 167.53125q6.53125 1.640625 13.40625 4.78125q6.890625 3.15625 16.6875 8.53125q15.171875 8.15625 25.90625 12.46875q10.734375 4.328125 22.390625 4.328125q10.5 0 19.609375 -3.734375q-1.875 17.03125 -8.296875 26.828125q-6.40625 9.796875 -15.96875 9.796875zm-7.9436493 -57.390625q-17.265625 0 -27.296875 -8.859375q-10.03125 -8.875 -10.03125 -28.015625q0 -15.859375 6.53125 -35.21875q6.53125 -19.375 21.0 -33.484375q14.46875 -14.125 36.40625 -14.125q29.859375 0 29.859375 37.328125l0 0.234375q0.703125 0.234375 2.5625 0.234375q7.703125 0 17.734375 -4.078125q10.03125 -4.078125 18.203125 -9.921875l2.09375 6.296875q-6.765625 7.234375 -17.609375 12.265625q-10.84375 5.015625 -23.6875 7.109375q-1.859375 21.234375 -9.5625 37.109375q-7.703125 15.859375 -19.84375 24.5q-12.125 8.625 -26.359375 8.625zm9.34375 -21.0q5.59375 0 11.1875 -6.421875q5.609375 -6.421875 9.796875 -17.5q4.203125 -11.078125 6.078125 -24.609375q-6.296875 -1.40625 -6.296875 -9.796875q0 -9.578125 7.21875 -12.609375q-0.453125 -7.703125 -2.328125 -10.609375q-1.859375 -2.921875 -6.53125 -2.921875q-7.703125 0 -14.9375 11.203125q-7.234375 11.203125 -11.671875 26.84375q-4.421875 15.625 -4.421875 27.515625q0 11.203125 2.5625 15.0625q2.5625 3.84375 9.34375 3.84375zm100.321655 78.390625q-11.203125 0 -18.671875 -5.828125q-7.453125 -5.828125 -7.453125 -16.796875q0 -13.296875 10.71875 -21.359375q10.734375 -8.046875 27.312515 -13.40625l2.796875 -12.375q-11.906265 12.84375 -28.000015 12.84375q-13.296875 0 -22.171875 -9.09375q-8.859375 -9.109375 -8.859375 -28.484375q0 -17.265625 6.875 -36.28125q6.890625 -19.015625 20.53125 -32.1875q13.65625 -13.1875 32.562485 -13.1875q9.5625 0 14.21875 3.265625q4.671875 3.265625 4.671875 8.625l0 1.40625l2.5625 -12.125l33.609375 0l-23.109375 108.25q11.203125 -3.734375 17.96875 -11.1875q6.765625 -7.46875 11.4375 -22.171875l9.796875 0q-6.296875 20.765625 -17.03125 30.453125q-10.734375 9.671875 -24.265625 13.171875l-3.5 16.8125q-4.671875 22.625 -16.109375 31.140625q-11.4218445 8.515625 -25.89061 8.515625zm1.875 -79.5625q5.3593903 0 10.95314 -4.890625q5.6093445 -4.90625 7.7030945 -13.3125l11.90625 -55.296875q0 -2.796875 -2.34375 -5.703125q-2.328125 -2.921875 -7.21875 -2.921875q-9.3437195 0 -16.81247 10.84375q-7.4531403 10.84375 -11.656265 26.140625q-4.203125 15.28125 -4.203125 26.9375q0 11.671875 3.375 14.9375q3.390625 3.265625 8.296875 3.265625zm-7.234375 61.359375q3.96875 0 7.6875 -5.359375q3.7343903 -5.359375 5.8437653 -15.40625l1.390625 -6.765625q-22.85939 8.40625 -22.85939 19.84375q0 3.03125 2.09375 5.359375q2.109375 2.328125 5.84375 2.328125zm116.42235 -39.1875q-17.265625 0 -27.296875 -8.859375q-10.03125 -8.875 -10.03125 -28.015625q0 -16.09375 6.296875 -35.34375q6.296875 -19.25 20.53125 -33.359375q14.234375 -14.125 36.40625 -14.125q27.53125 0 29.625 31.5q5.140625 -1.171875 9.109375 -5.71875q3.96875 -4.546875 7.46875 -10.375l7.453125 0q-6.296875 12.59375 -11.203125 19.71875q-4.890625 7.109375 -12.828125 11.546875q-1.390625 21.921875 -8.984375 38.5q-7.578125 16.5625 -19.71875 25.546875q-12.125 8.984375 -26.828125 8.984375zm9.34375 -21.0q8.625 0 16.09375 -14.0q7.46875 -14.0 10.265625 -34.53125q-5.59375 -2.109375 -5.59375 -10.5q0 -9.109375 6.53125 -12.140625q-0.46875 -7.46875 -2.453125 -10.375q-1.984375 -2.921875 -6.421875 -2.921875q-7.703125 0 -14.703125 11.09375q-7.0 11.078125 -11.3125 26.828125q-4.3125 15.75 -4.3125 27.640625q0 11.203125 2.5625 15.0625q2.5625 3.84375 9.34375 3.84375z" fill-rule="nonzero"/></g></svg>