<?xml version="1.0" encoding="utf-8"?>
<!-- Generator: Adobe Illustrator 21.1.0, SVG Export Plug-In . SVG Version: 6.00 Build 0)  -->
<svg version="1.1" id="Layer_1" xmlns="http://www.w3.org/2000/svg" xmlns:xlink="http://www.w3.org/1999/xlink" x="0px" y="0px"
	 viewBox="0 0 536.64 203.18" enable-background="new 0 0 536.64 203.18" xml:space="preserve">
<g>
	<g>
		<path fill="#EC2027" d="M0,3.62h64.85c13.92,0,27.83,0.84,39.52,8.35c12.53,8.35,15.03,20.32,15.03,35.9
			c0,28.39-1.95,39.52-26.44,48.43c9.46,2.78,19.76,5.84,25.05,18.37c3.06,6.4,3.89,13.64,3.89,31.45c0,10.3-0.28,25.05-7.23,36.74
			c-10.02,16.98-27.28,17.26-41.75,17.26H0V3.62z M44.81,38.41v42.03H64.3c11.69,0,13.08-6.96,13.08-21.43
			c0-15.31-2.78-20.6-14.47-20.6H44.81z M44.81,115.23v49.54H62.9c15.31,0,15.31-10.58,15.31-23.94c0-18.37-0.84-25.61-15.31-25.61
			H44.81z"/>
		<path fill="#EC2027" d="M311.74,104.93c-20.04-14.47-27.28-20.04-27.28-48.15C284.46,16.42,296.99,0,345.98,0
			c51.49,0,56.22,20.6,55.11,63.74h-45.09V50.1c0-10.02-0.83-16.42-13.08-16.42c-11.97,0-11.97,9.19-11.97,17.26
			c0,10.58,0.56,14.47,8.91,20.04l40.63,28.11c18.09,12.53,25.33,18.37,25.33,48.43c0,21.43-4.18,31.73-12.53,40.36
			c-8.07,8.35-20.6,15.03-49.27,15.03c-21.99,0-38.13-3.9-48.43-12.25c-14.2-11.97-13.92-29.78-13.36-53.44h47.04v15.31
			c0,4.73,0,15.86,13.92,15.86c14.75,0,15.03-9.18,15.03-13.92c0-15.03-0.28-16.42-17.81-28.95L311.74,104.93z"/>
		<path fill="#EC2027" d="M442.56,104.93c-20.04-14.47-27.28-20.04-27.28-48.15C415.28,16.42,427.81,0,476.8,0
			c51.49,0,56.22,20.6,55.11,63.74h-45.09V50.1c0-10.02-0.83-16.42-13.08-16.42c-11.97,0-11.97,9.19-11.97,17.26
			c0,10.58,0.56,14.47,8.91,20.04l40.63,28.11c18.09,12.53,25.33,18.37,25.33,48.43c0,21.43-4.18,31.73-12.53,40.36
			c-8.07,8.35-20.6,15.03-49.27,15.03c-21.99,0-38.13-3.9-48.43-12.25c-14.2-11.97-13.92-29.78-13.36-53.44h47.04v15.31
			c0,4.73,0,15.86,13.92,15.86c14.75,0,15.03-9.18,15.03-13.92c0-15.03-0.28-16.42-17.81-28.95L442.56,104.93z"/>
	</g>
	<circle fill="#EC2027" cx="203.9" cy="145.75" r="8.62"/>
	<g>
		<path fill="#EC2027" d="M203.88,60.26c-8.35,0-16.05,4.12-20.9,10.75h41.82C219.99,64.4,212.26,60.26,203.88,60.26z"/>
		<path fill="#EC2027" d="M203.88,102.15c8.34,0,16.05-4.12,20.9-10.75h-41.82C187.78,98,195.51,102.15,203.88,102.15z"/>
		<path fill="#EC2027" d="M227.56,86.76c0.3-0.88,0.89-2.95,0.89-5.56c0-2.58-0.58-4.64-0.92-5.63c-0.15-0.34-0.36-0.64-0.52-0.97
			h-46.22c-0.19,0.37-0.42,0.71-0.59,1.09c-0.3,0.88-0.87,2.94-0.87,5.51c0,2.61,0.58,4.68,0.93,5.68c0.15,0.33,0.35,0.62,0.51,0.94
			h46.22C227.17,87.45,227.39,87.13,227.56,86.76z"/>
		<path fill="#EC2027" d="M227.56,31.82c0.3-0.88,0.89-2.95,0.89-5.56c0-2.58-0.58-4.63-0.92-5.63c-0.15-0.34-0.36-0.64-0.52-0.97
			h-46.22c-0.19,0.37-0.42,0.71-0.59,1.09c-0.3,0.88-0.87,2.94-0.87,5.51c0,2.61,0.58,4.68,0.93,5.68c0.15,0.33,0.35,0.62,0.51,0.94
			h46.22C227.17,32.52,227.39,32.19,227.56,31.82z"/>
		<path fill="#EC2027" d="M225.02,3.62c3.95,4.76,6.33,10.87,6.33,17.53v0.01v10.22v0.01c0,9.23-4.56,17.37-11.54,22.35
			c6.98,4.98,11.54,13.12,11.54,22.35v10.23c0,9.23-4.57,17.37-11.54,22.35c6.95,4.96,11.5,13.06,11.54,22.24h-1.51
			c-4.06-8.46-11.93-14.44-21.13-15.99c-3.56-0.59-6.12-0.58-9.58-0.01c-9.26,1.56-17.13,7.53-21.19,16h-1.51
			c0.04-9.18,4.59-17.28,11.54-22.24c-6.98-4.98-11.54-13.12-11.54-22.35V76.09c0-9.23,4.56-17.37,11.54-22.35
			c-6.98-4.98-11.54-13.12-11.54-22.35v-0.01V21.16v-0.01c0-6.67,2.38-12.78,6.33-17.53h-40.79V146.4c0,22.82,0,56.78,64.3,56.78
			c59,0,59.56-33.96,59.56-58.17V3.62H225.02z M226.41,149.76l-4.98,0.56c-0.42,1.63-1.06,3.16-1.89,4.58l3.12,3.92l-5.68,5.68
			l-3.92-3.13c-1.41,0.83-2.95,1.47-4.58,1.9l-0.57,4.98h-8.04l-0.57-4.98c-1.62-0.42-3.16-1.06-4.57-1.89l-3.92,3.12l-5.68-5.68
			l3.12-3.92c-0.83-1.41-1.47-2.95-1.9-4.57l-4.98-0.57v-8.04l4.98-0.57c0.42-1.62,1.06-3.16,1.89-4.57l-3.12-3.92l5.68-5.68
			l3.92,3.12c1.41-0.83,2.95-1.47,4.57-1.9l0.57-4.98h8.04l0.57,4.98c1.62,0.42,3.16,1.06,4.57,1.89l3.93-3.12l5.68,5.68l-3.12,3.92
			c0.83,1.41,1.47,2.95,1.9,4.57l4.98,0.57V149.76z"/>
		<path fill="#EC2027" d="M203.88,5.32c-8.35,0-16.05,4.12-20.9,10.75h41.82C219.99,9.47,212.26,5.32,203.88,5.32z"/>
		<path fill="#EC2027" d="M224.78,36.46h-41.82c4.82,6.61,12.55,10.75,20.92,10.75C212.23,47.21,219.94,43.09,224.78,36.46z"/>
	</g>
</g>
</svg>
