<svg id="Layer_1" data-name="Layer 1" xmlns="http://www.w3.org/2000/svg" viewBox="0 0 268.04 331.3"><defs><style>.cls-1{fill:#fff;}.cls-2,.cls-3{fill:#ed1c24;}.cls-2{stroke:#fff;stroke-miterlimit:10;stroke-width:16.04px;}.cls-4{fill:none;}</style></defs><title>BUSS Crest</title><path class="cls-1" d="M134.11,331.28l-4.25-2.67a266.42,266.42,0,0,1-53.46-44.47H72.74v8.2H17.2V244H31.6V233.6h7.49A293.46,293.46,0,0,1,.52,103.23C.16,98.3,0,93.08,0,86.32A477.35,477.35,0,0,1,3.46,29.56L4,25.46l3.62-2C34.48,8.78,81.75,0,134,0s99.43,8.78,126.43,23.48l3.63,2,.49,4.11A477.49,477.49,0,0,1,268,86.32c0,5.42-.1,11-.2,16.38v.47A294.17,294.17,0,0,1,229.22,233.6h7.42V244H251v48.34H195.5v-8.2h-3.65a263.81,263.81,0,0,1-53.48,44.48Z" transform="translate(0 0.02)"/><path class="cls-2" d="M260,86.3a467,467,0,0,0-3.4-55.8C231.82,17,186.22,8,134,8s-97.9,9-122.6,22.5A467,467,0,0,0,8,86.3c0,5.4.1,10.9.5,16.4,2.9,51.7,19.1,99.2,44.9,138.9H39.62V252H25.22v32.3h39.5v-8.2h15.2a258.91,258.91,0,0,0,54.2,45.7,256.86,256.86,0,0,0,54.2-45.7h15.2v8.2H243V252h-14.4V241.6h-13.7a284.43,284.43,0,0,0,44.9-138.9C259.92,97.2,260,91.7,260,86.3Z" transform="translate(0 0.02)"/><path class="cls-1" d="M113.42,296.3c1.2.9,2.3,1.9,3.5,2.8a323.22,323.22,0,0,1,34.1,0c1.2-.9,2.3-1.8,3.5-2.8A313.16,313.16,0,0,0,113.42,296.3Z" transform="translate(0 0.02)"/><path class="cls-1" d="M96.92,281.5c.9.9,1.9,1.8,2.8,2.7a339.89,339.89,0,0,1,68.4,0c.9-.9,1.9-1.8,2.8-2.7A339,339,0,0,0,96.92,281.5Z" transform="translate(0 0.02)"/><path class="cls-1" d="M172.42,136l-38.5-41.4L95.42,136,53.72,94.6l-33.5,36.3a276.65,276.65,0,0,0,26,80.9,409.91,409.91,0,0,1,48.9-7.5,17.38,17.38,0,0,0,1,1.9l-7.3,9.2,2,2c-12.8,1.4-25.7,3.3-38.5,5.9.5.9,1,1.8,1.6,2.7,13.2-2.6,26.4-4.6,39.6-5.9l10.8,10.8,9.2-7.3a37.44,37.44,0,0,0,8,3.3l.5,4.5a392.28,392.28,0,0,0-60.8,6.5l1.8,2.7a399,399,0,0,1,59.4-6.2l.5,4.2h22l.5-4.2a396.51,396.51,0,0,1,59.3,6.3l1.8-2.7a389.9,389.9,0,0,0-60.7-6.6l.5-4.5a39.68,39.68,0,0,0,8-3.3l9.2,7.3,10.8-10.8c13.2,1.3,26.4,3.3,39.6,5.9.5-.9,1-1.8,1.6-2.7-12.8-2.6-25.7-4.6-38.5-5.9l2.1-2.1-7.3-9.2c.3-.6.7-1.2,1-1.9a406.82,406.82,0,0,1,48.9,7.5,281.09,281.09,0,0,0,26.1-81.1l-33.5-36.1Z" transform="translate(0 0.02)"/><path class="cls-1" d="M259.52,102.9c-5.2,94.3-54.8,174.8-125.6,219.2C63.12,277.7,13.52,197.2,8.32,102.9c-.3-5.5-.5-11-.5-16.4a467,467,0,0,1,3.4-55.8C36,17.2,81.62,8.2,133.82,8.2s97.9,9,122.6,22.5a467,467,0,0,1,3.4,55.8A150.08,150.08,0,0,1,259.52,102.9Z" transform="translate(0 0.02)"/><path class="cls-1" d="M71.52,252.4c.7.9,1.4,1.8,2,2.7a368.22,368.22,0,0,1,120.8.1c.7-.9,1.4-1.8,2-2.7A373.45,373.45,0,0,0,71.52,252.4Z" transform="translate(0 0.02)"/><path class="cls-1" d="M83.32,267l2.4,2.7a355.11,355.11,0,0,1,96.6.1l2.4-2.7A355.15,355.15,0,0,0,83.32,267Z" transform="translate(0 0.02)"/><path class="cls-3" d="M133.92,8.2c-52.2,0-97.9,9-122.6,22.5a467,467,0,0,0-3.4,55.8c0,5.4.1,10.9.5,16.4,5.2,94.3,54.8,174.8,125.6,219.2,70.8-44.4,120.4-124.9,125.6-219.2.3-5.5.5-11,.5-16.4a467,467,0,0,0-3.4-55.8C231.82,17.2,186.22,8.2,133.92,8.2ZM151,299.1a323.22,323.22,0,0,0-34.1,0c-1.2-.9-2.3-1.9-3.5-2.8a329.93,329.93,0,0,1,41,0Zm17.1-14.9a332.69,332.69,0,0,0-68.4,0c-.9-.9-1.9-1.8-2.8-2.7a332.9,332.9,0,0,1,74,.1C170,282.4,169.12,283.3,168.12,284.2Zm14.1-14.5a355.11,355.11,0,0,0-96.6-.1l-2.4-2.7a354.45,354.45,0,0,1,101.3.1A29.77,29.77,0,0,1,182.22,269.7Zm12.1-14.5a368.22,368.22,0,0,0-120.8-.1c-.7-.9-1.4-1.8-2-2.7a371.43,371.43,0,0,1,124.9.1Zm27.2-43.3a409.91,409.91,0,0,0-48.9-7.5,17.38,17.38,0,0,1-1,1.9l7.3,9.2-2.1,2.1c12.8,1.4,25.7,3.3,38.5,5.9-.5.9-1,1.8-1.6,2.7-13.2-2.6-26.4-4.6-39.6-5.9l-10.8,10.8-9.2-7.3a37.44,37.44,0,0,1-8,3.3l-.5,4.5a389.9,389.9,0,0,1,60.7,6.6l-1.8,2.7a396.51,396.51,0,0,0-59.3-6.3l-.5,4.2h-22l-.5-4.2a399,399,0,0,0-59.4,6.2L61,238.1a404.89,404.89,0,0,1,60.8-6.5l-.5-4.5a39.68,39.68,0,0,1-8-3.3l-9.2,7.3-10.8-10.8c-13.2,1.3-26.4,3.3-39.6,5.9-.5-.9-1.1-1.8-1.6-2.7a389.18,389.18,0,0,1,38.5-5.9l-2-2,7.3-9.2c-.3-.6-.7-1.3-1-1.9A406.82,406.82,0,0,0,46,212a276.65,276.65,0,0,1-26-80.9l33.5-36.3,41.7,41.4,38.5-41.4,38.5,41.4,41.7-41.4,33.5,36.1A270.25,270.25,0,0,1,221.52,211.9Z" transform="translate(0 0.02)"/><path class="cls-3" d="M227.62,128.4a5.8,5.8,0,0,0-4.8,4.2,6.75,6.75,0,0,0-.2,1.4,3.68,3.68,0,0,1-1.7,3.1l-9,5.9a2.84,2.84,0,0,1-4.1-1.3l-3-7.2a3.07,3.07,0,0,1,.1-2.8,4.22,4.22,0,0,0,.5-2.9,4.78,4.78,0,0,0-4.3-4.1,4.68,4.68,0,0,0-5.2,4.8,4.6,4.6,0,0,0,2.9,4.3,3.34,3.34,0,0,1,1.8,1.9l2.1,7.1a2.37,2.37,0,0,1-2.1,3.1l-8.9,1a3.07,3.07,0,0,1-2.4-.8,4.85,4.85,0,0,0-3.9-1.2,5.21,5.21,0,0,0,.6,10.4,5.1,5.1,0,0,0,4.5-2.7,2.66,2.66,0,0,1,2.5-1.4l7.6.6a2.4,2.4,0,0,1,2.1,2.9l-3.2,13.2a3.16,3.16,0,0,1-1.9,2.3,5.54,5.54,0,0,0,2.1,10.6,5.49,5.49,0,0,0,5.7-5.6,6.2,6.2,0,0,0-.9-3,3.54,3.54,0,0,1-.4-3l4.3-12a2.27,2.27,0,0,1,2.9-1.4l4.6,1.7a2.34,2.34,0,0,1,1.5,1.7,5.53,5.53,0,0,0,5.7,4.2,5.61,5.61,0,0,0,5.2-5.3,5.49,5.49,0,0,0-5.6-5.7,5.74,5.74,0,0,0-2.9.8,3.28,3.28,0,0,1-2.9.2l-3.5-1.6a1.89,1.89,0,0,1-.4-3.2l11.1-8.7a2.78,2.78,0,0,1,2.5-.5,5.86,5.86,0,0,0,2.3.1,5.62,5.62,0,0,0,4.6-4.8A5.29,5.29,0,0,0,227.62,128.4Z" transform="translate(0 0.02)"/><path class="cls-3" d="M40.32,128.4a5.8,5.8,0,0,1,4.8,4.2,6.75,6.75,0,0,1,.2,1.4,3.68,3.68,0,0,0,1.7,3.1l9,5.9a2.84,2.84,0,0,0,4.1-1.3l3-7.2a3.07,3.07,0,0,0-.1-2.8,4.22,4.22,0,0,1-.5-2.9,4.78,4.78,0,0,1,4.3-4.1,4.68,4.68,0,0,1,5.2,4.8,4.6,4.6,0,0,1-2.9,4.3,3.34,3.34,0,0,0-1.8,1.9l-2.1,7.1a2.37,2.37,0,0,0,2.1,3.1l8.9,1a3.07,3.07,0,0,0,2.4-.8,4.85,4.85,0,0,1,3.9-1.2,5.21,5.21,0,0,1-.6,10.4,5.1,5.1,0,0,1-4.5-2.7,2.66,2.66,0,0,0-2.5-1.4l-7.6.6a2.4,2.4,0,0,0-2.1,2.9l3.2,13.2a3.16,3.16,0,0,0,1.9,2.3,5.54,5.54,0,0,1-2.1,10.6,5.49,5.49,0,0,1-5.7-5.6,6.2,6.2,0,0,1,.9-3,3.54,3.54,0,0,0,.4-3l-4.3-12a2.27,2.27,0,0,0-2.9-1.4L52,157.5a2.34,2.34,0,0,0-1.5,1.7,5.53,5.53,0,0,1-5.7,4.2,5.61,5.61,0,0,1-5.2-5.3,5.49,5.49,0,0,1,5.6-5.7,5.74,5.74,0,0,1,2.9.8,3.28,3.28,0,0,0,2.9.2l3.5-1.6a1.89,1.89,0,0,0,.4-3.2l-11.1-8.7a2.78,2.78,0,0,0-2.5-.5,5.86,5.86,0,0,1-2.3.1,5.62,5.62,0,0,1-4.6-4.8A5.29,5.29,0,0,1,40.32,128.4Z" transform="translate(0 0.02)"/><path class="cls-4" d="M17.22,68.1a8.6,8.6,0,0,1-.1,1.6v-.3Z" transform="translate(0 0.02)"/><path class="cls-4" d="M21.42,73.2a1.1,1.1,0,0,0,.6,1,28.23,28.23,0,0,0,9.6,2.5V41.8a31.89,31.89,0,0,0-8.6,2Z" transform="translate(0 0.02)"/><path class="cls-4" d="M236.12,41.8V76.6a28.31,28.31,0,0,0,10-2.6,1.1,1.1,0,0,0,.6-1l-2-29.1A28.55,28.55,0,0,0,236.12,41.8Z" transform="translate(0 0.02)"/><path class="cls-4" d="M250,55.9c-.2-2.6-.4-5.3-.6-7.9,0,.1-.1.2,0,.4Z" transform="translate(0 0.02)"/><path class="cls-1" d="M233.42,35.3c-18.1,0-27,11.1-35.7,21.9-7.5,9.4-14.7,18.3-28,19.4V41.8a29.88,29.88,0,0,1,8.8,2.1V70.3a.78.78,0,0,0,1.1.7,26.06,26.06,0,0,0,2.8-1.7.91.91,0,0,0,.4-.8V46.2c4.4,2.8,8,6.7,11.5,10.9.4-.4,2.5-3.1,3.7-4.5a.91.91,0,0,0,0-1c-7.4-8.7-16.1-16.2-31-16.2-18.1,0-27,11.1-35.7,21.9-7.5,9.4-14.7,18.3-28,19.4V41.8a29.88,29.88,0,0,1,8.8,2.1V70.3a.78.78,0,0,0,1.1.7,26.06,26.06,0,0,0,2.8-1.7.91.91,0,0,0,.4-.8V46.2c4.4,2.8,8,6.7,11.5,10.9.4-.4,2.5-3.1,3.7-4.5a.91.91,0,0,0,0-1c-7.4-8.7-16.1-16.2-31-16.2-18.1,0-27,11.1-35.7,21.9-7.5,9.4-14.7,18.3-28,19.4V41.8a29.88,29.88,0,0,1,8.8,2.1V70.3a.74.74,0,0,0,1.1.7,26.06,26.06,0,0,0,2.8-1.7.91.91,0,0,0,.4-.8V46.2c4.4,2.8,8,6.7,11.5,10.9.4-.4,2.5-3.1,3.7-4.5a.91.91,0,0,0,0-1c-7.4-8.7-16.1-16.2-31-16.2a35.61,35.61,0,0,0-14.9,3.1c-1.1,9.8-1.8,19.8-2.2,29.7v1.6c-.1,3-.2,6.1-.2,9.1a34.47,34.47,0,0,0,17.4,4.3c18.1,0,27-11.1,35.7-21.9,7.5-9.4,14.7-18.3,28-19.4V76.7a29.88,29.88,0,0,1-8.8-2.1V48.2a.78.78,0,0,0-1.1-.7,26.06,26.06,0,0,0-2.8,1.7.91.91,0,0,0-.4.8V72.3c-4.4-2.8-8-6.7-11.5-10.9-.4.4-2.5,3.1-3.7,4.5a.91.91,0,0,0,0,1c7.4,8.7,16.1,16.2,31,16.2,18.1,0,27-11.1,35.7-21.9,7.5-9.4,14.7-18.3,28-19.4V76.6a29.88,29.88,0,0,1-8.8-2.1V48.1a.78.78,0,0,0-1.1-.7,26.06,26.06,0,0,0-2.8,1.7.91.91,0,0,0-.4.8V72.2c-4.4-2.8-8-6.7-11.5-10.9-.4.4-2.5,3.1-3.7,4.5a.91.91,0,0,0,0,1c7.4,8.7,16.1,16.2,31,16.2,18.1,0,27-11.1,35.7-21.9,7.5-9.4,14.7-18.3,28-19.4V76.5a29.88,29.88,0,0,1-8.8-2.1V48a.78.78,0,0,0-1.1-.7,26.06,26.06,0,0,0-2.8,1.7.91.91,0,0,0-.4.8V72.1c-4.4-2.8-8-6.7-11.5-10.9-.4.4-2.5,3.1-3.7,4.5a.91.91,0,0,0,0,1c7.4,8.7,16.1,16.2,31,16.2a34,34,0,0,0,17.6-4.5c-.1-7.6-.5-15.2-1-22.8l-.7-7.5v-.4c-.3-3.2-.6-6.3-.9-9.4A38.29,38.29,0,0,0,233.42,35.3ZM31.62,76.7A28.23,28.23,0,0,1,22,74.2a1.1,1.1,0,0,1-.6-1L23,43.9a25.83,25.83,0,0,1,8.6-2ZM246.12,74a27.76,27.76,0,0,1-10,2.6V41.8a31.89,31.89,0,0,1,8.6,2l2,29.1A1.15,1.15,0,0,1,246.12,74Z" transform="translate(0 0.02)"/><path class="cls-3" d="M126.92,234.2h14l1.2-10.7,1.5-.4a37.46,37.46,0,0,0,9.7-4l1.3-.8L163,225l9.9-9.9-6.7-8.4.8-1.3a37.46,37.46,0,0,0,4-9.7l.4-1.5,10.7-1.2V179l-10.7-1.2-.4-1.5a39,39,0,0,0-4-9.7l-.8-1.3,6.7-8.4L163,147l-8.4,6.7-1.3-.8a37.46,37.46,0,0,0-9.7-4l-1.5-.4-1.2-10.7h-14l-1.2,10.7-1.5.4a37.46,37.46,0,0,0-9.7,4l-1.3.8-8.4-6.7-9.9,9.9,6.7,8.4-.8,1.3a37.46,37.46,0,0,0-4,9.7l-.4,1.5L85.72,179v14l10.7,1.2.4,1.5a37.46,37.46,0,0,0,4,9.7l.8,1.3-6.7,8.4,9.9,9.9,8.4-6.7,1.3.8a37.46,37.46,0,0,0,9.7,4l1.5.4Zm7-27.3a20.88,20.88,0,0,1-14.8-6.1A20.64,20.64,0,0,1,113,186a20.88,20.88,0,0,1,6.1-14.8h0a20.64,20.64,0,0,1,14.8-6.1,21,21,0,0,1,14.8,35.8A20.62,20.62,0,0,1,133.92,206.9Z" transform="translate(0 0.02)"/><polygon class="cls-1" points="39.52 276.32 39.52 254.52 27.42 254.52 27.42 282.22 62.22 282.22 39.52 276.32"/><polygon class="cls-1" points="228.42 276.32 205.72 282.22 240.52 282.22 240.52 254.52 228.42 254.52 228.42 276.32"/><path class="cls-3" d="M228.42,241.8h-189v10.4H25v32.3h39.5v-8.2h138.8v8.2h39.5V252.2h-14.4V241.8Zm-201,40.4V254.5h12.1v21.8h0l22.8,5.9H27.42Zm14.4-8.2V244.1h184.4V274Zm198.7-19.5v27.7h-34.9l22.8-5.9V254.5h12.1Z" transform="translate(0 0.02)"/><path class="cls-1" d="M61.22,256.1a5.39,5.39,0,0,0-.1-1.8c-.2-.5-.6-.6-1.3-.6h-1.1v3.8h1.8C61.12,257.3,61.22,256.9,61.22,256.1Z" transform="translate(0 0.02)"/><path class="cls-1" d="M80.12,253.3c-1.4,0-1.4,1.2-1.4,2v7.6c0,.9,0,1.8,1.4,1.8s1.4-1.1,1.4-1.8v-7.8C81.42,254.4,81.42,253.3,80.12,253.3Z" transform="translate(0 0.02)"/><path class="cls-1" d="M59.92,259.7h-1.2v4.8h1.2c1.2,0,1.6-.1,1.6-1.5v-1.8C61.42,259.9,61.12,259.7,59.92,259.7Z" transform="translate(0 0.02)"/><path class="cls-1" d="M226.12,244.1H41.72V274h184.4V244.1ZM64.22,263.4a3.19,3.19,0,0,1-1,2.8,4.29,4.29,0,0,1-2.4.5H56V251.6h4.7a3.75,3.75,0,0,1,2.3.5,2.67,2.67,0,0,1,1.1,2.6v1.4c0,2-.7,2.3-1.8,2.6,1.8.3,1.9,1.1,1.9,2.8v1.9Zm7.1,3.2h-2.8V251.5h2.8Zm12.9-3.2a3.29,3.29,0,0,1-.8,2.5,4.71,4.71,0,0,1-3.3,1.1c-3.4,0-4.2-1.6-4.2-3.6v-8.5a3.58,3.58,0,0,1,.8-2.6,4.69,4.69,0,0,1,3.4-1.2,5.79,5.79,0,0,1,3.2.9,3.39,3.39,0,0,1,1,2.9v8.5Zm12,3.2h-7.5V251.4H96v2.3h-4.5v3.6h4.3v2.3h-4.3v4.7h4.7Zm12.6,0h-3.5l-2.7-11.3.3,11.3h-2.6V251.5h3.6l2.7,11.1-.3-11.1h2.6v15.1Zm12.9-10.2h-2.8V255c0-.7,0-1.6-1.3-1.6s-1.4,1.1-1.4,2v8c0,1,.3,1.5,1.3,1.5,1.4,0,1.4-1,1.4-1.8v-2.4h-1.7v-2.3h4.5v8.2h-2.4v-.9a3.12,3.12,0,0,1-2.7,1.2c-1.4,0-3.3-.6-3.3-3.1v-8.6c0-1.5.1-4.1,4.3-4.1a5.59,5.59,0,0,1,2.9.7,2.48,2.48,0,0,1,1.1,2.3v2.3Zm7.4,10.2h-2.8V251.5h2.8Zm13.4,0H139l-2.7-11.3.3,11.3H134V251.5h3.6l2.7,11.1-.3-11.1h2.6v15.1Zm12.3,0h-7.5V251.4h7.3v2.3h-4.5v3.6h4.3v2.3h-4.3v4.7h4.7Zm11.5,0h-7.5V251.4h7.3v2.3h-4.5v3.6h4.3v2.3h-4.3v4.7h4.7Zm10,0a3.81,3.81,0,0,1-.4-1.7v-3.2c0-1,0-1.8-1.5-1.8h-1.3v6.7h-2.8V251.4h5.6c2.7,0,2.7,1.8,2.7,3.2v1.6c0,1.9-.6,2.3-1.9,2.6a2.46,2.46,0,0,1,2.1,2.6v3.1a2.54,2.54,0,0,0,.6,2h-3.1Zm9.6,0h-2.8V251.5h2.8Zm13.3,0h-3.5L193,255.3l.3,11.3h-2.6V251.5h3.6l2.7,11.1-.3-11.1h2.6v15.1Zm12.9-10.2h-2.8V255c0-.7,0-1.6-1.3-1.6s-1.4,1.1-1.4,2v8c0,1,.3,1.5,1.3,1.5,1.4,0,1.4-1,1.4-1.8v-2.4h-1.7v-2.3h4.5v8.2h-2.4v-.9a3.12,3.12,0,0,1-2.7,1.2c-1.4,0-3.3-.6-3.3-3.1v-8.6c0-1.5.1-4.1,4.3-4.1a5.59,5.59,0,0,1,2.9.7,2.48,2.48,0,0,1,1.1,2.3v2.3Z" transform="translate(0 0.02)"/><path class="cls-1" d="M174.62,253.7h-1.5v4.1h1.5c1.3,0,1.3-.7,1.3-1.5v-1.4C175.92,253.7,175.22,253.7,174.62,253.7Z" transform="translate(0 0.02)"/><path class="cls-3" d="M62.22,258.5c1.1-.2,1.8-.6,1.8-2.6v-1.4a2.67,2.67,0,0,0-1.1-2.6,3.75,3.75,0,0,0-2.3-.5h-4.7v15.1h4.8a3.91,3.91,0,0,0,2.4-.5,3.19,3.19,0,0,0,1-2.8v-2.1C64.22,259.6,64,258.8,62.22,258.5Zm-3.5-4.8h1.1c.7,0,1.2.1,1.3.6a5.39,5.39,0,0,1,.1,1.8c0,.8-.2,1.2-.7,1.4h-1.8Zm2.7,9.2c0,1.4-.4,1.5-1.6,1.5h-1.2v-4.8h1.2c1.2,0,1.5.2,1.5,1.5v1.8Z" transform="translate(0 0.02)"/><rect class="cls-3" x="68.62" y="251.52" width="2.8" height="15.1"/><path class="cls-3" d="M80.12,251.2c-1.7,0-2.9.5-3.4,1.2a3.47,3.47,0,0,0-.8,2.6v8.5c0,1.9.8,3.6,4.2,3.6a4.29,4.29,0,0,0,3.3-1.1,3.29,3.29,0,0,0,.8-2.5v-8.4a3.39,3.39,0,0,0-1-2.9A4.29,4.29,0,0,0,80.12,251.2Zm1.3,11.8c0,.7,0,1.8-1.4,1.8s-1.4-1-1.4-1.8v-7.6c0-.8,0-2,1.4-2s1.3,1.1,1.3,1.9V263Z" transform="translate(0 0.02)"/><polygon class="cls-3" points="91.52 259.62 95.82 259.62 95.82 257.32 91.52 257.32 91.52 253.82 96.02 253.82 96.02 251.52 88.72 251.52 88.72 266.62 96.22 266.62 96.22 264.32 91.52 264.32 91.52 259.62"/><polygon class="cls-3" points="106.62 262.62 103.92 251.52 100.32 251.52 100.32 266.62 102.92 266.62 102.62 255.32 105.32 266.62 108.82 266.62 108.82 251.52 106.32 251.52 106.62 262.62"/><path class="cls-3" d="M117.72,251.2c-4.2,0-4.3,2.6-4.3,4.1v8.6c0,2.5,1.9,3.1,3.3,3.1a3.4,3.4,0,0,0,2.7-1.2v.9h2.4v-8.2h-4.5v2.3H119v2.4c0,.7,0,1.8-1.4,1.8-1,0-1.3-.5-1.3-1.5v-8c0-.8,0-2,1.4-2s1.3.8,1.3,1.6v1.4h2.8v-2.2a2.59,2.59,0,0,0-1.1-2.3A5.61,5.61,0,0,0,117.72,251.2Z" transform="translate(0 0.02)"/><rect class="cls-3" x="126.42" y="251.52" width="2.8" height="15.1"/><polygon class="cls-3" points="140.22 262.62 137.52 251.52 133.92 251.52 133.92 266.62 136.52 266.62 136.32 255.32 139.02 266.62 142.52 266.62 142.52 251.52 139.92 251.52 140.22 262.62"/><polygon class="cls-3" points="150.02 259.62 154.32 259.62 154.32 257.32 150.02 257.32 150.02 253.82 154.62 253.82 154.62 251.52 147.22 251.52 147.22 266.62 154.82 266.62 154.82 264.32 150.02 264.32 150.02 259.62"/><polygon class="cls-3" points="161.62 259.62 165.82 259.62 165.82 257.32 161.62 257.32 161.62 253.82 166.12 253.82 166.12 251.52 158.82 251.52 158.82 266.62 166.32 266.62 166.32 264.32 161.62 264.32 161.62 259.62"/><path class="cls-3" d="M178.82,261.5a2.46,2.46,0,0,0-2.1-2.6c1.4-.3,1.9-.6,1.9-2.6v-1.6c0-1.4,0-3.2-2.7-3.2h-5.6v15.2h2.8V260h1.3c1.5,0,1.5.7,1.5,1.8V265a4.12,4.12,0,0,0,.4,1.7h3.1a2.42,2.42,0,0,1-.6-2v-3.2Zm-2.9-5.2c0,.8,0,1.5-1.3,1.5h-1.5v-4.1h1.5c.6,0,1.3,0,1.3,1.2Z" transform="translate(0 0.02)"/><rect class="cls-3" x="183.12" y="251.52" width="2.8" height="15.1"/><polygon class="cls-3" points="196.92 262.62 194.22 251.52 190.62 251.52 190.62 266.62 193.32 266.62 193.02 255.32 195.72 266.62 199.22 266.62 199.22 251.52 196.72 251.52 196.92 262.62"/><path class="cls-3" d="M208,251.2c-4.2,0-4.3,2.6-4.3,4.1v8.6c0,2.5,1.9,3.1,3.3,3.1a3.4,3.4,0,0,0,2.7-1.2v.9h2.4v-8.2h-4.5v2.3h1.7v2.4c0,.7,0,1.8-1.4,1.8-1,0-1.3-.5-1.3-1.5v-8c0-.8,0-2,1.4-2s1.3.8,1.3,1.6v1.4h2.8v-2.2A2.59,2.59,0,0,0,211,252,5.41,5.41,0,0,0,208,251.2Z" transform="translate(0 0.02)"/></svg>