<svg version="1.1" viewBox="0.0 0.0 720.0 540.0" fill="none" stroke="none" stroke-linecap="square" stroke-miterlimit="10" xmlns:xlink="http://www.w3.org/1999/xlink" xmlns="http://www.w3.org/2000/svg"><clipPath id="p.0"><path d="m0 0l720.0 0l0 540.0l-720.0 0l0 -540.0z" clip-rule="nonzero"/></clipPath><g clip-path="url(#p.0)"><path fill="#000000" fill-opacity="0.0" d="m0 0l720.0 0l0 540.0l-720.0 0z" fill-rule="evenodd"/><path fill="#000000" fill-opacity="0.0" d="m-21.682415 168.18898l746.4882 0l0 203.62206l-746.4882 0z" fill-rule="evenodd"/><path fill="#666666" d="m59.957417 250.7496q-1.375 -8.5 -4.875 -14.203125q-3.5 -5.703125 -8.890625 -8.59375q-5.390625 -2.890625 -12.53125 -2.734375q-6.546875 0 -11.484375 3.65625q-4.9375 3.640625 -4.9375 9.421875q0 4.703125 2.65625 8.203125q2.65625 3.5 8.125 6.546875q5.484375 3.03125 13.84375 6.53125q5.78125 2.28125 11.859375 5.328125q6.078125 3.03125 11.234379 7.21875q5.171875 4.171875 8.359375 9.71875q3.203125 5.546875 3.203125 13.0q0 8.96875 -4.875 15.96875q-4.859375 6.984375 -13.593754 10.859375q-8.734375 3.875 -20.453125 3.875q-6.078125 0 -13.140625 -1.90625q-7.0625 -1.90625 -13.296875 -5.546875l0.453125 6.390625l-11.703125 0l0 -35.578125l10.03125 0q2.125 12.765625 9.796875 19.234375q7.6875 6.453125 18.328125 6.453125q5.46875 0 9.5625 -1.96875q4.109375 -1.984375 6.390625 -5.25q2.28125 -3.265625 2.28125 -7.0625q0 -5.328125 -3.734375 -8.8125q-3.71875 -3.5 -9.265625 -5.921875q-5.546875 -2.4375 -11.3125 -4.71875q-7.296875 -3.046875 -13.609375 -6.46875q-6.3125 -3.421875 -11.03125 -7.828125q-4.703125 -4.40625 -7.296875 -10.109375q-2.578125 -5.703125 -2.578125 -13.140625q0 -4.71875 1.828125 -9.8125q1.828125 -5.09375 5.921875 -9.421875q4.1093745 -4.328125 10.953125 -7.0625q6.84375 -2.734375 16.875 -2.734375q6.078125 0 13.296875 1.828125q7.21875 1.8125 12.390625 5.46875l-0.609375 -6.234375l11.859379 0l0 35.40625l-10.031254 0zm25.07909 111.125l0 -9.890625q4.25 0 6.140625 -1.671875q1.90625 -1.671875 2.4375 -4.796875q0.53125 -3.109375 0.53125 -7.046875l0 -64.296875q0 -2.75 0.15625 -6.15625q0.15625 -3.421875 0.453125 -6.765625q-2.421875 0.140625 -5.78125 0.21875q-3.34375 0.078125 -5.015625 0.234375l0 -11.546875q7.15625 0 11.9375 -0.765625q4.796875 -0.765625 7.59375 -1.828125q2.8125 -1.0625 3.890625 -1.96875l7.4375 0q0.3125 1.515625 0.453125 3.71875q0.15625 2.203125 0.3125 3.578125q5.3125 -4.5625 10.5625 -6.390625q5.2499924 -1.828125 9.953117 -1.828125q9.125 0 16.03125 4.71875q6.921875 4.703125 10.796875 13.375q3.875 8.65625 3.875 20.375q0 12.15625 -4.71875 21.8125q-4.703125 9.640625 -13.140625 15.125q-8.4375 5.46875 -19.828125 5.46875q-4.1093674 0 -7.3749924 -0.84375q-3.265625 -0.828125 -6.15625 -1.890625l0 14.578125q0 2.140625 -0.078125 6.015625q-0.078125 3.875 -0.375 7.359375q2.421875 -0.296875 5.3125 -0.375q2.890625 -0.078125 4.40625 -0.078125l0 11.5625l-39.8125 0zm41.640625 -47.734375q6.9999924 -0.15625 10.874992 -4.171875q3.875 -4.03125 5.390625 -10.5625q1.515625 -6.546875 1.515625 -14.0q0 -6.984375 -1.671875 -13.21875q-1.671875 -6.234375 -5.328125 -10.109375q-3.640625 -3.875 -9.562492 -3.71875q-3.796875 0.15625 -7.0 1.90625q-3.1875 1.734375 -5.3125 4.78125q0 4.703125 0 9.34375q0 4.640625 0 9.203125q0 4.5625 0 9.203125q0 4.625 0 9.265625q0 4.625 0 9.34375q1.671875 1.0625 4.703125 1.984375q3.046875 0.90625 6.390625 0.75zm88.46134 11.40625q-10.9375 0 -19.765625 -4.703125q-8.8125 -4.71875 -13.90625 -13.453125q-5.078125 -8.75 -5.078125 -20.609375q0 -12.609375 5.234375 -22.109375q5.25 -9.5 13.984375 -14.75q8.75 -5.25 19.078125 -5.25q10.9375 0 19.59375 4.71875q8.671875 4.703125 13.6875 13.453125q5.015625 8.734375 5.015625 20.890625q0 12.78125 -4.859375 22.203125q-4.859375 9.421875 -13.375 14.515625q-8.515625 5.09375 -19.609375 5.09375zm0.609375 -10.796875q6.078125 -0.15625 9.1875 -4.25q3.125 -4.109375 4.34375 -10.34375q1.21875 -6.234375 1.21875 -12.609375q0 -5.625 -0.84375 -11.40625q-0.828125 -5.78125 -2.65625 -10.484375q-1.828125 -4.71875 -4.953125 -7.59375q-3.109375 -2.890625 -7.65625 -2.75q-5.9375 0.15625 -9.359375 4.265625q-3.421875 4.09375 -4.859375 10.25q-1.4375 6.15625 -1.4375 12.84375q0 7.75 1.671875 15.203125q1.671875 7.453125 5.390625 12.25q3.71875 4.78125 9.953125 4.625zm48.188217 8.359375l0 -9.875q4.25 0 6.078125 -1.671875q1.828125 -1.671875 2.359375 -4.78125q0.53125 -3.125 0.53125 -7.078125l0 -25.53125q0 -2.75 0.140625 -6.15625q0.15625 -3.421875 0.46875 -6.765625q-2.4375 0.140625 -5.703125 0.21875q-3.265625 0.078125 -4.9375 0.234375l0 -11.546875q6.984375 0 11.84375 -0.765625q4.875 -0.765625 7.6875 -1.828125q2.8125 -1.0625 3.875 -1.96875l7.453125 0q0.296875 1.96875 0.296875 2.890625q0 0.90625 0.078125 1.75q0.078125 0.828125 0.53125 2.953125q3.03125 -2.4375 6.984375 -4.328125q3.953125 -1.90625 7.90625 -3.046875q3.953125 -1.140625 7.0 -1.140625q13.984375 0 19.828125 7.984375q5.859375 7.984375 5.859375 25.609375l0 20.375q0 2.125 -0.15625 6.0q-0.15625 3.875 -0.453125 7.375q2.578125 -0.3125 5.46875 -0.375q2.890625 -0.078125 4.40625 -0.078125l0 11.546875l-39.828125 0l0 -9.875q4.265625 0 6.15625 -1.671875q1.90625 -1.671875 2.4375 -4.78125q0.53125 -3.125 0.53125 -7.078125l-0.15625 -21.578125q0 -9.890625 -2.8125 -14.671875q-2.8125 -4.796875 -9.5 -4.796875q-3.796875 0 -7.515625 1.671875q-3.71875 1.671875 -6.3125 3.953125q0 2.125 0 4.34375q0 2.203125 0 4.328125l0 25.6875q0 2.125 -0.15625 6.0q-0.140625 3.875 -0.453125 7.375q2.4375 -0.3125 5.390625 -0.375q2.96875 -0.078125 4.5 -0.078125l0 11.546875l-39.828125 0zm131.62509 2.4375q-6.53125 0 -12.765625 -1.671875q-6.234375 -1.671875 -9.71875 -4.265625l0.296875 4.5625l-11.546875 0l-0.609375 -26.140625l9.875 0q0.453125 4.5625 3.640625 8.359375q3.203125 3.796875 8.359375 6.0q5.171875 2.203125 11.5625 2.203125q2.578125 0 4.9375 -0.75q2.359375 -0.765625 3.953125 -2.515625q1.59375 -1.75 1.59375 -4.328125q0 -2.890625 -2.0625 -4.703125q-2.046875 -1.828125 -5.921875 -3.5q-3.875 -1.671875 -9.640625 -3.8125q-4.71875 -1.8125 -9.515625 -3.78125q-4.78125 -1.984375 -8.8125 -4.796875q-4.015625 -2.8125 -6.453125 -6.984375q-2.4375 -4.1875 -2.4375 -10.265625q0 -4.421875 1.671875 -8.75q1.671875 -4.328125 5.171875 -7.890625q3.5 -3.578125 8.890625 -5.703125q5.40625 -2.140625 12.84375 -2.140625q4.109375 0 9.34375 1.296875q5.25 1.296875 8.90625 3.875l0 -4.40625l11.546875 0l0 26.90625l-9.875 0q-0.921875 -5.328125 -3.734375 -9.125q-2.8125 -3.796875 -7.21875 -5.84375q-4.40625 -2.0625 -9.875 -2.0625q-3.796875 0 -6.921875 1.828125q-3.109375 1.828125 -3.109375 6.234375q0 3.5 2.421875 5.546875q2.4375 2.046875 6.6875 3.421875q4.265625 1.359375 9.4375 3.1875q7.75 2.59375 13.75 6.09375q6.0 3.484375 9.5 8.421875q3.5 4.9375 3.5 12.09375q0 7.890625 -3.953125 13.0625q-3.953125 5.171875 -10.265625 7.765625q-6.296875 2.578125 -13.453125 2.578125zm76.00122 0q-10.9375 0 -19.765625 -4.703125q-8.8125 -4.71875 -13.90625 -13.453125q-5.078125 -8.75 -5.078125 -20.609375q0 -12.609375 5.234375 -22.109375q5.25 -9.5 13.984375 -14.75q8.75 -5.25 19.078125 -5.25q10.9375 0 19.59372 4.71875q8.671875 4.703125 13.6875 13.453125q5.015625 8.734375 5.015625 20.890625q0 12.78125 -4.859375 22.203125q-4.859375 9.421875 -13.375 14.515625q-8.5155945 5.09375 -19.609344 5.09375zm0.609375 -10.796875q6.078125 -0.15625 9.1875 -4.25q3.125 -4.109375 4.34375 -10.34375q1.21875 -6.234375 1.21875 -12.609375q0 -5.625 -0.84375 -11.40625q-0.828125 -5.78125 -2.65625 -10.484375q-1.828125 -4.71875 -4.953125 -7.59375q-3.109375 -2.890625 -7.65625 -2.75q-5.9375 0.15625 -9.359375 4.265625q-3.421875 4.09375 -4.859375 10.25q-1.4375 6.15625 -1.4375 12.84375q0 7.75 1.671875 15.203125q1.671875 7.453125 5.390625 12.25q3.71875 4.78125 9.953125 4.625zm48.18817 -1.515625q4.25 0 6.078125 -1.671875q1.828125 -1.671875 2.359375 -4.78125q0.53125 -3.125 0.53125 -7.078125l0 -25.53125q0 -2.75 0.140625 -6.15625q0.15625 -3.421875 0.46875 -6.765625q-2.4375 0.140625 -5.703125 0.21875q-3.265625 0.078125 -4.9375 0.234375l0 -11.546875l6.078125 0q5.921875 0 10.859375 -1.515625q4.953125 -1.53125 6.46875 -3.046875l7.453125 0q0.296875 1.515625 0.4375 5.703125q0.15625 4.171875 0.15625 7.359375q4.109375 -5.015625 7.75 -8.046875q3.65625 -3.046875 7.21875 -4.484375q3.578125 -1.453125 7.234375 -1.453125q5.3125 0 9.265625 2.96875q3.953125 2.96875 3.953125 9.65625q0 2.28125 -1.0625 4.796875q-1.0625 2.5 -3.34375 4.171875q-2.28125 1.671875 -6.234375 1.671875q-3.03125 0 -6.234375 -1.828125q-3.1875 -1.828125 -3.640625 -6.984375q-3.046875 0 -6.09375 2.515625q-3.03125 2.5 -5.390625 5.921875q-2.34375 3.40625 -3.265625 6.296875l0 24.78125q0 2.125 -0.15625 6.0q-0.140625 3.875 -0.453125 7.375q2.4375 -0.3125 5.390625 -0.375q2.96875 -0.078125 4.5 -0.078125l0 11.546875l-39.828125 0l0 -9.875zm144.99847 12.3125q-11.390625 0 -18.6875 -3.421875q-7.296875 -3.421875 -10.796875 -8.59375q-3.5 -5.171875 -3.5 -10.328125q0 -4.5625 2.8125 -7.984375q2.8125 -3.421875 7.53125 -3.578125q3.796875 -0.140625 5.921875 1.53125q2.140625 1.671875 3.046875 3.953125q0.90625 2.265625 0.90625 4.25q0 1.515625 -0.609375 3.421875q-0.609375 1.890625 -1.8125 3.5625q1.671875 2.890625 5.546875 4.5q3.875 1.59375 8.125 1.59375q9.578125 0 14.4375 -5.78125q4.875 -5.78125 4.875 -14.296875q0 -5.15625 -1.984375 -10.328125q-1.96875 -5.171875 -6.84375 -8.59375q-4.859375 -3.421875 -13.671875 -3.265625q-1.0625 0 -3.796875 0.15625q-2.734375 0.15625 -4.109375 0.296875l0 -10.9375q1.21875 0.15625 2.28125 0.15625q1.0625 0 2.125 0q6.6875 0 11.390625 -2.4375q4.71875 -2.4375 7.21875 -6.6875q2.515625 -4.25 2.671875 -9.875q0.15625 -5.328125 -1.296875 -9.34375q-1.4375 -4.03125 -4.5625 -6.3125q-3.109375 -2.28125 -8.28125 -2.28125q-4.09375 0 -7.4375 1.984375q-3.34375 1.96875 -4.5625 4.390625q1.359375 1.671875 1.890625 3.875q0.53125 2.203125 0.53125 3.578125q0 1.828125 -0.984375 4.1875q-0.984375 2.34375 -3.265625 4.015625q-2.28125 1.671875 -6.078125 1.53125q-4.71875 -0.15625 -7.15625 -3.34375q-2.421875 -3.203125 -2.421875 -7.609375q0 -4.5625 3.5 -10.03125q3.5 -5.46875 10.640625 -9.34375q7.140625 -3.875 17.78125 -3.875q9.421875 0 17.09375 2.59375q7.6875 2.578125 12.171875 8.5q4.484375 5.921875 4.484375 15.8125q0 3.953125 -2.203125 8.890625q-2.203125 4.9375 -7.234375 9.046875q-5.015625 4.09375 -13.375 6.078125q14.59375 2.578125 21.515625 10.484375q6.921875 7.90625 6.921875 17.625q0 10.34375 -5.25 17.5625q-5.25 7.21875 -14.453125 10.953125q-9.1875 3.71875 -21.046875 3.71875z" fill-rule="nonzero"/></g></svg>